<?xml version="1.0" encoding="UTF-8" standalone="no"?>
<svg
   width="1110"
   height="420"
   id="svg3995">
  <defs
     id="defs3997">
    <style
       type="text/css"
       id="style3999">
      @namespace &quot;http://www.w3.org/2000/svg&quot;;
      rect, path {fill: none; stroke: #332900;}              
   </style>
  </defs>
  <rect
     x="49"
     y="177"
     width="96"
     height="32"
     rx="10"
     id="rect4001" />
  <text
     x="59"
     y="197"
     id="text4003"
     style="fill:#800080">determinant</text>
  <rect
     x="49"
     y="221"
     width="96"
     height="32"
     rx="10"
     id="rect4005" />
  <text
     x="59"
     y="241"
     id="text4007"
     style="fill:#ff00ff">determinatif</text>
  <rect
     x="265"
     y="111"
     width="72"
     height="32"
     rx="10"
     id="rect4009" />
  <text
     x="275"
     y="131"
     id="text4011"
     style="fill:#008000">adverbe</text>
  <rect
     x="377"
     y="145"
     width="136"
     height="32"
     rx="10"
     id="rect4013" />
  <text
     x="387"
     y="165"
     id="text4015"
     style="fill:#0000ff">adjectif_qualificatif</text>
  <rect
     x="225"
     y="45"
     width="202"
     height="32"
     rx="10"
     id="rect4017" />
  <text
     x="235"
     y="65"
     id="text4019"
     style="fill:#00ff00">conjonction_de_coordination</text>
  <rect
     x="225"
     y="1"
     width="24"
     height="32"
     rx="10"
     id="rect4021" />
  <text
     x="235"
     y="21"
     id="text4023">,</text>
  <rect
     x="613"
     y="177"
     width="46"
     height="32"
     rx="10"
     id="rect4025" />
  <text
     x="623"
     y="197"
     id="text4027"
     style="fill:#ff0000">nom</text>
  <rect
     x="785"
     y="111"
     width="72"
     height="32"
     rx="10"
     id="rect4029"
     style="fill:none;stroke:#332900" />
  <text
     x="795"
     y="131"
     id="text4031"
     style="fill:#008000">adverbe</text>
  <rect
     x="897"
     y="145"
     width="136"
     height="32"
     rx="10"
     id="rect4033"
     style="fill:none;stroke:#332900" />
  <text
     x="907"
     y="165"
     id="text4035"
     style="fill:#000080">adjectif_qualificatif</text>
  <rect
     x="765"
     y="189"
     width="112"
     height="32"
     rx="10"
     id="rect4037"
     style="fill:none;stroke:#332900" />
  <text
     x="775"
     y="209"
     id="text4039"
     style="fill:#800000">pronom_relatif</text>
  <rect
     x="897"
     y="189"
     width="138"
     height="32"
     rx="10"
     id="rect4041"
     style="fill:none;stroke:#332900" />
  <text
     x="907"
     y="209"
     id="text4043">proposition_simple</text>
  <rect
     x="765"
     y="233"
     width="140"
     height="32"
     rx="10"
     id="rect4045"
     style="fill:none;stroke:#332900" />
  <text
     x="775"
     y="253"
     id="text4047">proposition_infitive</text>
  <rect
     x="765"
     y="277"
     width="164"
     height="32"
     rx="10"
     id="rect4049"
     style="fill:none;stroke:#332900" />
  <text
     x="775"
     y="297"
     id="text4051">proposition_participale</text>
  <rect
     x="765"
     y="321"
     width="90"
     height="32"
     rx="10"
     id="rect4053"
     style="fill:none;stroke:#332900" />
  <text
     x="775"
     y="341"
     id="text4055"
     style="fill:#808000">preposition</text>
  <rect
     x="875"
     y="321"
     width="122"
     height="32"
     rx="10"
     id="rect4057"
     style="fill:none;stroke:#332900" />
  <text
     x="885"
     y="341"
     id="text4059">groupe_nominal</text>
  <rect
     x="765"
     y="365"
     width="24"
     height="32"
     rx="10"
     id="rect4061"
     style="fill:none;stroke:#332900" />
  <text
     x="775"
     y="385"
     id="text4063">,</text>
  <rect
     x="809"
     y="365"
     width="122"
     height="32"
     rx="10"
     id="rect4065"
     style="fill:none;stroke:#332900" />
  <text
     x="819"
     y="385"
     id="text4067">groupe_nominal</text>
  <rect
     x="951"
     y="365"
     width="24"
     height="32"
     rx="10"
     id="rect4069"
     style="fill:none;stroke:#332900" />
  <text
     x="961"
     y="385"
     id="text4071">,</text>
  <rect
     x="745"
     y="67"
     width="202"
     height="32"
     rx="10"
     id="rect4073"
     style="fill:none;stroke:#332900" />
  <text
     x="755"
     y="87"
     id="text4075"
     style="fill:#00ff00">conjonction_de_coordination</text>
  <rect
     x="745"
     y="23"
     width="24"
     height="32"
     rx="10"
     id="rect4077"
     style="fill:none;stroke:#332900" />
  <text
     x="755"
     y="43"
     id="text4079">,</text>
  <path
     d="m 17,161 2,0 m 20,0 10,0 m 0,0 106,0 m -136,0 20,0 m 116,0 20,0 m -156,0 c 6.666667,0 10,3.33333 10,10 m 136,0 c 0,-6.66667 3.33333,-10 10,-10 m -146,10 0,12 m 136,0 0,-12 M 29,183 c 0,6.66667 3.333333,10 10,10 m 116,0 c 6.66667,0 10,-3.33333 10,-10 m -126,10 10,0 m 96,0 10,0 m -126,-10 0,20 m 136,0 0,-20 m -136,20 0,24 m 136,0 0,-24 M 29,227 c 0,6.66667 3.333333,10 10,10 m 116,0 c 6.66667,0 10,-3.33333 10,-10 m -126,10 10,0 m 96,0 10,0 m 100,-76 10,0 m 0,0 82,0 m -112,0 20,0 m -1,0 c -6,0 -9,-3.33333 -9,-10 l 0,-14 c 0,-6.66667 3.33333,-10 10,-10 m 92,34 20,0 m -20,0 c 6.66667,0 10,-3.33333 10,-10 l 0,-14 c 0,-6.66667 -3.33333,-10 -10,-10 m -92,0 10,0 m 72,0 10,0 m 20,34 10,0 m 136,0 10,0 m -308,0 20,0 m 288,0 20,0 m -348,0 20,0 m -1,0 c -6,0 -9,-3.33333 -9,-10 l 0,-46 c 0,-6.666667 3.33333,-10 10,-10 m 328,66 20,0 m -20,0 c 6.66667,0 10,-3.33333 10,-10 l 0,-46 c 0,-6.666667 -3.33333,-10 -10,-10 m -328,0 10,0 m 0,0 318,0 m -338,10 0,-34 c 0,-6.666667 3.33333,-10 10,-10 m 338,44 0,-34 c 0,-6.666667 -3.33333,-10 -10,-10 m -328,0 10,0 m 202,0 10,0 m 0,0 106,0 m -338,10 0,-44 c 0,-6.666667 3.33333,-10 10,-10 m 338,54 0,-44 c 0,-6.666667 -3.33333,-10 -10,-10 m -328,0 10,0 m 24,0 10,0 m 0,0 284,0 m -368,144 20,0 m 368,0 20,0 m -408,0 c 6.66667,0 10,3.33333 10,10 m 388,0 c 0,-6.66667 3.33333,-10 10,-10 m -398,10 0,30 m 388,0 0,-30 m -388,30 c 0,6.66667 3.33333,10 10,10 m 368,0 c 6.66667,0 10,-3.33333 10,-10 m -378,10 10,0 m 0,0 358,0 m 40,-50 10,0 m 0,0 56,0 m -86,0 20,0 m 66,0 20,0 m -106,0 c 6.66667,0 10,3.33333 10,10 m 86,0 c 0,-6.66667 3.33333,-10 10,-10 m -96,10 0,12 m 86,0 0,-12 m -86,12 c 0,6.66667 3.33333,10 10,10 m 66,0 c 6.66667,0 10,-3.33333 10,-10 m -76,10 10,0 m 46,0 10,0 m 20,-32 6,0 m 80,0 10,0 m 0,0 82,0 m -112,0 20,0 m -1,0 c -6,0 -9,-3.33333 -9,-10 l 0,-14 c 0,-6.66667 3.33333,-10 10,-10 m 92,34 20,0 m -20,0 c 6.66667,0 10,-3.33333 10,-10 l 0,-14 c 0,-6.66667 -3.33333,-10 -10,-10 m -92,0 10,0 m 72,0 10,0 m 20,34 10,0 m 136,0 10,0 m 0,0 2,0 m -310,0 20,0 m 290,0 20,0 m -330,0 c 6.66667,0 10,3.33333 10,10 m 310,0 c 0,-6.66667 3.3333,-10 10,-10 m -320,10 0,24 m 310,0 0,-24 m -310,24 c 0,6.66667 3.33333,10 10,10 m 290,0 c 6.6667,0 10,-3.33333 10,-10 m -300,10 10,0 m 112,0 10,0 m 0,0 10,0 m 138,0 10,0 m -300,-10 0,20 m 310,0 0,-20 m -310,20 0,24 m 310,0 0,-24 m -310,24 c 0,6.66667 3.33333,10 10,10 m 290,0 c 6.6667,0 10,-3.33333 10,-10 m -300,10 10,0 m 140,0 10,0 m 0,0 130,0 m -300,-10 0,20 m 310,0 0,-20 m -310,20 0,24 m 310,0 0,-24 m -310,24 c 0,6.66667 3.33333,10 10,10 m 290,0 c 6.6667,0 10,-3.33333 10,-10 m -300,10 10,0 m 164,0 10,0 m 0,0 106,0 m -300,-10 0,20 m 310,0 0,-20 m -310,20 0,24 m 310,0 0,-24 m -310,24 c 0,6.66667 3.33333,10 10,10 m 290,0 c 6.6667,0 10,-3.33333 10,-10 m -300,10 10,0 m 90,0 10,0 m 0,0 10,0 m 122,0 10,0 m 0,0 38,0 m -300,-10 0,20 m 310,0 0,-20 m -310,20 0,24 m 310,0 0,-24 m -310,24 c 0,6.66667 3.33333,10 10,10 m 290,0 c 6.6667,0 10,-3.33333 10,-10 m -300,10 10,0 m 24,0 10,0 m 0,0 10,0 m 122,0 10,0 m 0,0 10,0 m 24,0 10,0 m 0,0 60,0 m -330,-220 20,0 m -1,0 c -6,0 -9,-3.33333 -9,-10 l 0,-58 c 0,-6.666667 3.33333,-10 10,-10 m 330,78 20,0 m -20,0 c 6.6667,0 10,-3.33333 10,-10 l 0,-58 c 0,-6.666667 -3.3333,-10 -10,-10 m -330,0 10,0 m 202,0 10,0 m 0,0 108,0 m -340,10 0,-44 c 0,-6.666667 3.33333,-10 10,-10 m 340,54 0,-44 c 0,-6.666667 -3.3333,-10 -10,-10 m -330,0 10,0 m 24,0 10,0 m 0,0 286,0 m -370,122 20,0 m 370,0 20,0 m -410,0 c 6.66667,0 10,3.33333 10,10 m 390,0 c 0,-6.66667 3.3333,-10 10,-10 m -400,10 0,234 m 390,0 0,-234 M 705,405 c 0,6.66667 3.33333,10 10,10 m 370,0 c 6.6667,0 10,-3.33333 10,-10 m -380,10 10,0 m 0,0 360,0 m 23,-254 -3,0"
     id="path4081"
     inkscape:connector-curvature="0"
     style="fill:none;stroke:#332900"
     sodipodi:nodetypes="cccccccccccccccccccccccccccccccccccccccccccccccccssccccssccccccccccccccccssccccssccccccsccsccccccccsccsccccccccccccccccccccccccccccccccccccccccccccccccccccccccccccssccccssccccccccccccccccccccccccccccccccccccccccccccccccccccccccccccccccccccccccccccccccccccccccccccccccccccccccccccccccccccccccccssccccssccccccccsccsccccccccccccccccccccccccccccc" />
  <text
     x="603.85724"
     y="153.77899"
     id="text4027-8"
     style="fill:#ff0000">pas de nom</text>
  <text
     x="49.004017"
     y="155.32584"
     id="text4003-1"
     style="fill:#800080">sans determinant</text>
</svg>
