<?xml version="1.0" encoding="UTF-8" standalone="no"?>
<svg
   xmlns:dc="http://purl.org/dc/elements/1.1/"
   xmlns:cc="http://creativecommons.org/ns#"
   xmlns:rdf="http://www.w3.org/1999/02/22-rdf-syntax-ns#"
   xmlns:svg="http://www.w3.org/2000/svg"
   xmlns="http://www.w3.org/2000/svg"
   xmlns:sodipodi="http://sodipodi.sourceforge.net/DTD/sodipodi-0.dtd"
   xmlns:inkscape="http://www.inkscape.org/namespaces/inkscape"
   width="832"
   height="376"
   id="svg2"
   version="1.1"
   inkscape:version="0.48.1 "
   sodipodi:docname="grammaire2.svg">
  <metadata
     id="metadata72">
    <rdf:RDF>
      <cc:Work
         rdf:about="">
        <dc:format>image/svg+xml</dc:format>
        <dc:type
           rdf:resource="http://purl.org/dc/dcmitype/StillImage" />
      </cc:Work>
    </rdf:RDF>
  </metadata>
  <sodipodi:namedview
     pagecolor="#ffffff"
     bordercolor="#666666"
     borderopacity="1"
     objecttolerance="10"
     gridtolerance="10"
     guidetolerance="10"
     inkscape:pageopacity="0"
     inkscape:pageshadow="2"
     inkscape:window-width="1366"
     inkscape:window-height="706"
     id="namedview70"
     showgrid="false"
     inkscape:zoom="0.81589244"
     inkscape:cx="574.36314"
     inkscape:cy="49.297132"
     inkscape:window-x="-8"
     inkscape:window-y="-8"
     inkscape:window-maximized="1"
     inkscape:current-layer="svg2" />
  <defs
     id="defs4">
    <style
       type="text/css"
       id="style6">
      @namespace &quot;http://www.w3.org/2000/svg&quot;;
      rect, path {fill: none; stroke: #332900;}
      </style>
  </defs>
  <path
     style="fill:none;stroke:#999999;stroke-width:1px;stroke-linecap:butt;stroke-linejoin:miter;stroke-opacity:1"
     d="m 304.2,245.35 0,-131.51667 386.53333,0 0,133.03334 -225.11666,0 0,128.91666 -383.283337,0 0,-130.21667 z"
     id="path3089"
     inkscape:connector-curvature="0"
     sodipodi:nodetypes="ccccccccc" />
  <rect
     x="69"
     y="89"
     width="138"
     height="32"
     rx="10"
     id="rect8" />
  <text
     x="79"
     y="109"
     id="text10">proposition_simple</text>
  <rect
     x="247"
     y="121"
     width="24"
     height="32"
     rx="10"
     id="rect12" />
  <text
     x="257"
     y="141"
     id="text14">,</text>
  <rect
     x="311"
     y="121"
     width="210"
     height="32"
     rx="10"
     id="rect16" />
  <text
     x="321"
     y="141"
     id="text18"
     style="fill:#008080">conjonction_de_subordination</text>
  <rect
     x="541"
     y="121"
     width="138"
     height="32"
     rx="10"
     id="rect20" />
  <text
     x="551"
     y="141"
     id="text22">proposition_simple</text>
  <rect
     x="311"
     y="165"
     width="140"
     height="32"
     rx="10"
     id="rect24" />
  <text
     x="321"
     y="185"
     id="text26">proposition_infitive</text>
  <rect
     x="311"
     y="209"
     width="164"
     height="32"
     rx="10"
     id="rect28" />
  <text
     x="321"
     y="229"
     id="text30">proposition_participale</text>
  <rect
     x="89"
     y="253"
     width="210"
     height="32"
     rx="10"
     id="rect32" />
  <text
     x="99"
     y="273"
     id="text34"
     style="fill:#008080">conjonction_de_subordination</text>
  <rect
     x="319"
     y="253"
     width="138"
     height="32"
     rx="10"
     id="rect36" />
  <text
     x="329"
     y="273"
     id="text38">proposition_simple</text>
  <rect
     x="89"
     y="297"
     width="140"
     height="32"
     rx="10"
     id="rect40" />
  <text
     x="99"
     y="317"
     id="text42">proposition_infitive</text>
  <rect
     x="89"
     y="341"
     width="164"
     height="32"
     rx="10"
     id="rect44" />
  <text
     x="99"
     y="361"
     id="text46">proposition_participale</text>
  <rect
     x="497"
     y="253"
     width="24"
     height="32"
     rx="10"
     id="rect48" />
  <text
     x="507"
     y="273"
     id="text50">,</text>
  <rect
     x="541"
     y="253"
     width="138"
     height="32"
     rx="10"
     id="rect52" />
  <text
     x="551"
     y="273"
     id="text54">proposition_simple</text>
  <rect
     x="49"
     y="45"
     width="202"
     height="32"
     rx="10"
     id="rect56" />
  <text
     x="59"
     y="65"
     id="text58"
     style="fill:#00ff00">conjonction_de_coordination</text>
  <rect
     x="49"
     y="1"
     width="24"
     height="32"
     rx="10"
     id="rect60" />
  <text
     x="59"
     y="21"
     id="text62">,</text>
  <rect
     x="779"
     y="89"
     width="24"
     height="32"
     rx="10"
     id="rect64" />
  <text
     x="789"
     y="109"
     id="text66">.</text>
  <path
     class="line"
     d="m17 105 h2 m40 0 h10 m138 0 h10 m20 0 h10 m0 0 h462 m-492 0 h20 m472 0 h20 m-512 0 q10 0 10 10 m492 0 q0 -10 10 -10 m-502 10 v12 m492 0 v-12 m-492 12 q0 10 10 10 m472 0 q10 0 10 -10 m-482 10 h10 m24 0 h10 m20 0 h10 m210 0 h10 m0 0 h10 m138 0 h10 m-408 0 h20 m388 0 h20 m-428 0 q10 0 10 10 m408 0 q0 -10 10 -10 m-418 10 v24 m408 0 v-24 m-408 24 q0 10 10 10 m388 0 q10 0 10 -10 m-398 10 h10 m140 0 h10 m0 0 h228 m-398 -10 v20 m408 0 v-20 m-408 20 v24 m408 0 v-24 m-408 24 q0 10 10 10 m388 0 q10 0 10 -10 m-398 10 h10 m164 0 h10 m0 0 h204 m-650 -120 h20 m670 0 h20 m-710 0 q10 0 10 10 m690 0 q0 -10 10 -10 m-700 10 v144 m690 0 v-144 m-690 144 q0 10 10 10 m670 0 q10 0 10 -10 m-660 10 h10 m210 0 h10 m0 0 h10 m138 0 h10 m-408 0 h20 m388 0 h20 m-428 0 q10 0 10 10 m408 0 q0 -10 10 -10 m-418 10 v24 m408 0 v-24 m-408 24 q0 10 10 10 m388 0 q10 0 10 -10 m-398 10 h10 m140 0 h10 m0 0 h228 m-398 -10 v20 m408 0 v-20 m-408 20 v24 m408 0 v-24 m-408 24 q0 10 10 10 m388 0 q10 0 10 -10 m-398 10 h10 m164 0 h10 m0 0 h204 m20 -88 h10 m24 0 h10 m0 0 h10 m138 0 h10 m0 0 h40 m-710 -164 l20 0 m-1 0 q-9 0 -9 -10 l0 -24 q0 -10 10 -10 m710 44 l20 0 m-20 0 q10 0 10 -10 l0 -24 q0 -10 -10 -10 m-710 0 h10 m202 0 h10 m0 0 h488 m-720 10 l0 -44 q0 -10 10 -10 m720 54 l0 -44 q0 -10 -10 -10 m-710 0 h10 m24 0 h10 m0 0 h666 m20 88 h10 m24 0 h10 m3 0 h-3"
     id="path68" />
  <text
     x="80.182228"
     y="28.435867"
     id="text10-1">apposition</text>
  <text
     x="116.26097"
     y="247.95779"
     id="text10-1-5"
     style="fill:#ffffff;stroke:#008080">subordonnées conjonctives</text>
</svg>
