<?xml version="1.0" encoding="UTF-8" standalone="no"?>
<!-- Created with Inkscape (http://www.inkscape.org/) -->

<svg
   xmlns="http://www.w3.org/2000/svg"
   width="744.09448"
   height="1052.3622">
  <defs
     id="defs3997">
    <style
       type="text/css"
       id="style3999">
      @namespace &quot;http://www.w3.org/2000/svg&quot;;
      rect, path {fill: none; stroke: #332900;}              
   </style>
    <filter
       id="filter3141"
       x="0"
       y="0"
       width="1"
       height="1">
      <feFlood
         id="feFlood3143"
         result="result1"
         flood-opacity="0"
         flood-color="rgb(128,128,128)" />
      <feBlend
         id="feBlend3145"
         in2="SourceGraphic"
         mode="normal"
         result="result2" />
      <feComposite
         id="feComposite3147"
         in2="SourceGraphic"
         k2="1"
         operator="arithmetic"
         result="result3" />
      <feComposite
         id="feComposite3149"
         in2="SourceGraphic"
         operator="in" />
    </filter>
  </defs>
  <g
     id="webslicer-layer"
     style="display:inline">
    <a
       id="a4171"
       transform="matrix(0,-1,1,0,52.750959,441.9906)">
      <rect
         style="opacity:0.5;fill:#ff0000"
         height="281.92157"
         width="141.65298"
         y="28.481302"
         x="254.20763"
         id="decoupe">
        <desc
           id="desc3661">format: png
dpi: 90
layout-disposition: bg-el-norepeat
layout-position-anchor: tl</desc>
      </rect>
    </a>
  </g>
  <g
     id="layer1"
     transform="translate(0,-2.5390623e-6)">
    <rect
       style="fill:none;stroke:#ff0000;stroke-width:3.12519693;stroke-miterlimit:4;stroke-opacity:1;stroke-dasharray:none"
       id="rect2985-17"
       width="140.73228"
       height="282.46457"
       x="47.127415"
       y="-363.05417"
       transform="matrix(0,1,-1,0,0,0)" />
    <text
       xml:space="preserve"
       style="font-size:40px;font-style:normal;font-weight:normal;line-height:125%;letter-spacing:0px;word-spacing:0px;fill:#ff0000;fill-opacity:1;stroke:#ff0000;font-family:Sans"
       x="210.87415"
       y="226.17599"
       id="text2993-9-4-6-3"><tspan
         id="tspan2995-2-7-1-4"
         x="210.87415"
         y="226.17599"
         style="font-size:12px;fill:#ff0000;stroke:#ff0000">800</tspan></text>
    <text
       xml:space="preserve"
       style="font-size:40px;font-style:normal;font-weight:normal;line-height:125%;letter-spacing:0px;word-spacing:0px;fill:#ff0000;fill-opacity:1;stroke:#ff0000;font-family:Sans"
       x="30.245609"
       y="112.97294"
       id="text2993-9-4-6-0"><tspan
         id="tspan2995-2-7-1-8"
         x="30.245609"
         y="112.97294"
         style="font-size:12px;fill:#ff0000;stroke:#ff0000">400</tspan></text>
    <rect
       style="fill:none;stroke:#000000;stroke-width:0.99999988;stroke-opacity:1"
       id="rect2985-1-4-1"
       width="13.173228"
       height="282.46457"
       x="199.78909"
       y="-363.23764"
       transform="matrix(0,1,-1,0,0,0)" />
    <path
       style="fill:#ffffff;stroke:#000000;stroke-width:1.23640239;stroke-opacity:1"
       id="path3109-6-0-9"
       d="m 223.46271,50.632839 a 7.7056103,7.7056103 0 1 1 -15.41122,0 7.7056103,7.7056103 0 1 1 15.41122,0 z"
       transform="matrix(0,0.80879817,-0.80879817,0,324.14171,-82.436743)" />
    <path
       style="fill:#ffffff;stroke:#000000;stroke-width:1.96114731;stroke-opacity:1"
       id="path3109-3-0"
       d="m 223.46271,50.632839 a 7.7056103,7.7056103 0 1 1 -15.41122,0 7.7056103,7.7056103 0 1 1 15.41122,0 z"
       transform="matrix(0,0.5099056,-0.5099056,0,279.45201,-46.786703)" />
    <path
       style="fill:#ffffff;stroke:#000000;stroke-width:1.23640239;stroke-opacity:1"
       id="path3109-6-0-9-5"
       d="m 223.46271,50.632839 a 7.7056103,7.7056103 0 1 1 -15.41122,0 7.7056103,7.7056103 0 1 1 15.41122,0 z"
       transform="matrix(0,0.80879817,-0.80879817,0,331.69892,-38.071583)" />
    <path
       style="fill:#ffff00;stroke:#000000;stroke-width:1.03120387;stroke-opacity:1"
       id="path3109-6-0-9-2"
       d="m 223.46271,50.632839 a 7.7056103,7.7056103 0 1 1 -15.41122,0 7.7056103,7.7056103 0 1 1 15.41122,0 z"
       transform="matrix(0,0.96974032,-0.96974032,0,393.89835,-116.36722)" />
    <path
       style="fill:#ffffff;stroke:#000000;stroke-width:1.23640239;stroke-opacity:1"
       id="path3109-6-0-9-50"
       d="m 223.46271,50.632839 a 7.7056103,7.7056103 0 1 1 -15.41122,0 7.7056103,7.7056103 0 1 1 15.41122,0 z"
       transform="matrix(0,0.80879817,-0.80879817,0,287.15713,-95.092983)" />
    <path
       style="fill:#ffffff;stroke:#000000;stroke-width:1.23640239;stroke-opacity:1"
       id="path3109-6-0-9-4"
       d="m 223.46271,50.632839 a 7.7056103,7.7056103 0 1 1 -15.41122,0 7.7056103,7.7056103 0 1 1 15.41122,0 z"
       transform="matrix(0,0.80879817,-0.80879817,0,260.28402,-35.395363)" />
    <path
       style="fill:#ffffff;stroke:#000000;stroke-width:1.23640239;stroke-opacity:1"
       id="path3109-6-0-9-8"
       d="m 223.46271,50.632839 a 7.7056103,7.7056103 0 1 1 -15.41122,0 7.7056103,7.7056103 0 1 1 15.41122,0 z"
       transform="matrix(0,0.80879817,-0.80879817,0,194.32555,-63.138933)" />
    <path
       style="fill:#ffffff;stroke:#000000;stroke-width:1.23640239;stroke-opacity:1"
       id="path3109-6-0-9-25"
       d="m 223.46271,50.632839 a 7.7056103,7.7056103 0 1 1 -15.41122,0 7.7056103,7.7056103 0 1 1 15.41122,0 z"
       transform="matrix(0,0.80879817,-0.80879817,0,167.21926,-61.975663)" />
    <path
       style="fill:#ffffff;stroke:#000000;stroke-width:1.23640239;stroke-opacity:1"
       id="path3109-6-0-9-1"
       d="m 223.46271,50.632839 a 7.7056103,7.7056103 0 1 1 -15.41122,0 7.7056103,7.7056103 0 1 1 15.41122,0 z"
       transform="matrix(0,0.80879817,-0.80879817,0,305.28275,-98.563163)" />
    <path
       style="fill:#ffffff;stroke:#000000;stroke-width:1.23640239;stroke-opacity:1"
       id="path3109-6-0-9-1-4"
       d="m 223.46271,50.632839 a 7.7056103,7.7056103 0 1 1 -15.41122,0 7.7056103,7.7056103 0 1 1 15.41122,0 z"
       transform="matrix(0,0.80879817,-0.80879817,0,296.75243,-55.896763)" />
    <path
       style="fill:#ffffff;stroke:#000000;stroke-width:1.23640239;stroke-opacity:1"
       id="path3109-6-0-9-1-7"
       d="m 223.46271,50.632839 a 7.7056103,7.7056103 0 1 1 -15.41122,0 7.7056103,7.7056103 0 1 1 15.41122,0 z"
       transform="matrix(0,0.80879817,-0.80879817,0,296.09317,-5.5203828)" />
    <path
       style="fill:#ffffff;stroke:#000000;stroke-width:1.23640239;stroke-opacity:1"
       id="path3109-6-0-9-1-78"
       d="m 223.46271,50.632839 a 7.7056103,7.7056103 0 1 1 -15.41122,0 7.7056103,7.7056103 0 1 1 15.41122,0 z"
       transform="matrix(0,0.80879817,-0.80879817,0,336.75135,1.5468972)" />
    <path
       style="fill:#ffffff;stroke:#000000;stroke-width:1.23640239;stroke-opacity:1"
       id="path3109-6-0-9-1-1"
       d="m 223.46271,50.632839 a 7.7056103,7.7056103 0 1 1 -15.41122,0 7.7056103,7.7056103 0 1 1 15.41122,0 z"
       transform="matrix(0,0.80879817,-0.80879817,0,309.29239,-114.30449)" />
    <path
       style="fill:#ffffff;stroke:#000000;stroke-width:1.23640239;stroke-opacity:1"
       id="path3109-6-0-9-1-5"
       d="m 223.46271,50.632839 a 7.7056103,7.7056103 0 1 1 -15.41122,0 7.7056103,7.7056103 0 1 1 15.41122,0 z"
       transform="matrix(0,0.80879817,-0.80879817,0,344.96236,-32.869133)" />
    <path
       style="fill:#ffffff;stroke:#000000;stroke-width:1.23640239;stroke-opacity:1"
       id="path3109-6-0-9-1-0"
       d="m 223.46271,50.632839 a 7.7056103,7.7056103 0 1 1 -15.41122,0 7.7056103,7.7056103 0 1 1 15.41122,0 z"
       transform="matrix(0,0.80879817,-0.80879817,0,198.73908,-94.699993)" />
    <path
       style="fill:#ffffff;stroke:#000000;stroke-width:1.23640239;stroke-opacity:1"
       id="path3109-6-0-9-25-1"
       d="m 223.46271,50.632839 a 7.7056103,7.7056103 0 1 1 -15.41122,0 7.7056103,7.7056103 0 1 1 15.41122,0 z"
       transform="matrix(0,0.80879817,-0.80879817,0,244.69104,-43.807593)" />
    <path
       style="fill:#ffffff;stroke:#000000;stroke-width:1.96114731;stroke-opacity:1"
       id="path3109-3-0-0"
       d="m 223.46271,50.632839 a 7.7056103,7.7056103 0 1 1 -15.41122,0 7.7056103,7.7056103 0 1 1 15.41122,0 z"
       transform="matrix(0,0.5099056,-0.5099056,0,143.90555,16.004637)" />
    <path
       style="fill:#ffffff;stroke:#000000;stroke-width:1.96114731;stroke-opacity:1"
       id="path3109-3-0-0-5"
       d="m 223.46271,50.632839 a 7.7056103,7.7056103 0 1 1 -15.41122,0 7.7056103,7.7056103 0 1 1 15.41122,0 z"
       transform="matrix(0,0.5099056,-0.5099056,0,249.56139,-18.552313)" />
    <path
       style="fill:#ffffff;stroke:#000000;stroke-width:1.96114731;stroke-opacity:1"
       id="path3109-3-0-0-7"
       d="m 223.46271,50.632839 a 7.7056103,7.7056103 0 1 1 -15.41122,0 7.7056103,7.7056103 0 1 1 15.41122,0 z"
       transform="matrix(0,0.5099056,-0.5099056,0,228.59595,56.618747)" />
    <path
       style="fill:#ffffff;stroke:#000000;stroke-width:1.96114731;stroke-opacity:1"
       id="path3109-3-0-0-2"
       d="m 223.46271,50.632839 a 7.7056103,7.7056103 0 1 1 -15.41122,0 7.7056103,7.7056103 0 1 1 15.41122,0 z"
       transform="matrix(0,0.5099056,-0.5099056,0,239.9154,-43.475333)" />
    <path
       style="fill:#ffffff;stroke:#000000;stroke-width:1.96114731;stroke-opacity:1"
       id="path3109-3-0-0-9"
       d="m 223.46271,50.632839 a 7.7056103,7.7056103 0 1 1 -15.41122,0 7.7056103,7.7056103 0 1 1 15.41122,0 z"
       transform="matrix(0,0.5099056,-0.5099056,0,276.49891,32.628697)" />
    <path
       style="fill:#ffffff;stroke:#000000;stroke-width:1.96114731;stroke-opacity:1"
       id="path3109-3-0-0-1"
       d="m 223.46271,50.632839 a 7.7056103,7.7056103 0 1 1 -15.41122,0 7.7056103,7.7056103 0 1 1 15.41122,0 z"
       transform="matrix(0,0.5099056,-0.5099056,0,309.59062,-30.699433)" />
    <path
       style="fill:#ffffff;stroke:#000000;stroke-width:1.96114731;stroke-opacity:1"
       id="path3109-3-0-0-72"
       d="m 223.46271,50.632839 a 7.7056103,7.7056103 0 1 1 -15.41122,0 7.7056103,7.7056103 0 1 1 15.41122,0 z"
       transform="matrix(0,0.5099056,-0.5099056,0,157.72388,-56.140673)" />
    <path
       style="fill:#ffffff;stroke:#000000;stroke-width:1.96114731;stroke-opacity:1"
       id="path3109-3-0-0-3"
       d="m 223.46271,50.632839 a 7.7056103,7.7056103 0 1 1 -15.41122,0 7.7056103,7.7056103 0 1 1 15.41122,0 z"
       transform="matrix(0,0.5099056,-0.5099056,0,302.24444,-41.292603)" />
    <path
       style="fill:#ffffff;stroke:#000000;stroke-width:1.96114731;stroke-opacity:1"
       id="path3109-3-0-0-8"
       d="m 223.46271,50.632839 a 7.7056103,7.7056103 0 1 1 -15.41122,0 7.7056103,7.7056103 0 1 1 15.41122,0 z"
       transform="matrix(0,0.5099056,-0.5099056,0,162.42973,-39.880213)" />
    <path
       style="fill:#ffffff;stroke:#000000;stroke-width:1.96114731;stroke-opacity:1"
       id="path3109-3-0-0-4"
       d="m 223.46271,50.632839 a 7.7056103,7.7056103 0 1 1 -15.41122,0 7.7056103,7.7056103 0 1 1 15.41122,0 z"
       transform="matrix(0,0.5099056,-0.5099056,0,250.67798,-2.0386228)" />
    <path
       style="fill:#ffffff;stroke:#000000;stroke-width:1.96114731;stroke-opacity:1"
       id="path3109-3-0-0-0"
       d="m 223.46271,50.632839 a 7.7056103,7.7056103 0 1 1 -15.41122,0 7.7056103,7.7056103 0 1 1 15.41122,0 z"
       transform="matrix(0,0.5099056,-0.5099056,0,229.29527,68.262147)" />
    <path
       style="fill:#ffffff;stroke:#000000;stroke-width:1.96114731;stroke-opacity:1"
       id="path3109-3-0-0-86"
       d="m 223.46271,50.632839 a 7.7056103,7.7056103 0 1 1 -15.41122,0 7.7056103,7.7056103 0 1 1 15.41122,0 z"
       transform="matrix(0,0.5099056,-0.5099056,0,188.10395,-56.347223)" />
    <path
       style="fill:#ffffff;stroke:#000000;stroke-width:1.96114731;stroke-opacity:1"
       id="path3109-3-0-0-2-0"
       d="m 223.46271,50.632839 a 7.7056103,7.7056103 0 1 1 -15.41122,0 7.7056103,7.7056103 0 1 1 15.41122,0 z"
       transform="matrix(0,0.5099056,-0.5099056,0,138.16905,28.475097)" />
    <path
       style="fill:#ffffff;stroke:#000000;stroke-width:1.96114731;stroke-opacity:1"
       id="path3109-3-0-0-2-2"
       d="m 223.46271,50.632839 a 7.7056103,7.7056103 0 1 1 -15.41122,0 7.7056103,7.7056103 0 1 1 15.41122,0 z"
       transform="matrix(0,0.5099056,-0.5099056,0,137.7794,43.124457)" />
    <path
       style="fill:#ffffff;stroke:#000000;stroke-width:1.96114731;stroke-opacity:1"
       id="path3109-3-0-0-2-06"
       d="m 223.46271,50.632839 a 7.7056103,7.7056103 0 1 1 -15.41122,0 7.7056103,7.7056103 0 1 1 15.41122,0 z"
       transform="matrix(0,0.5099056,-0.5099056,0,303.18768,-4.0466628)" />
    <path
       style="fill:#ffffff;stroke:#000000;stroke-width:1.96114731;stroke-opacity:1"
       id="path3109-3-0-0-2-7"
       d="m 223.46271,50.632839 a 7.7056103,7.7056103 0 1 1 -15.41122,0 7.7056103,7.7056103 0 1 1 15.41122,0 z"
       transform="matrix(0,0.5099056,-0.5099056,0,320.61305,11.323987)" />
    <path
       style="fill:#ffffff;stroke:#000000;stroke-width:1.96114731;stroke-opacity:1"
       id="path3109-3-0-0-2-5"
       d="m 223.46271,50.632839 a 7.7056103,7.7056103 0 1 1 -15.41122,0 7.7056103,7.7056103 0 1 1 15.41122,0 z"
       transform="matrix(0,0.5099056,-0.5099056,0,286.32152,20.421867)" />
    <path
       style="fill:#ffffff;stroke:#000000;stroke-width:1.96114731;stroke-opacity:1"
       id="path3109-3-0-2-3"
       d="m 223.46271,50.632839 a 7.7056103,7.7056103 0 1 1 -15.41122,0 7.7056103,7.7056103 0 1 1 15.41122,0 z"
       transform="matrix(0,0.5099056,-0.5099056,0,297.23998,-23.221353)" />
    <path
       style="fill:#ffffff;stroke:#000000;stroke-width:1.96114731;stroke-opacity:1"
       id="path3109-3-0-0-2-7-0"
       d="m 223.46271,50.632839 a 7.7056103,7.7056103 0 1 1 -15.41122,0 7.7056103,7.7056103 0 1 1 15.41122,0 z"
       transform="matrix(0,0.5099056,-0.5099056,0,290.28016,-2.2649328)" />
    <path
       style="fill:#ffffff;stroke:#000000;stroke-width:1.96114731;stroke-opacity:1"
       id="path3109-3-0-0-2-7-0-1"
       d="m 223.46271,50.632839 a 7.7056103,7.7056103 0 1 1 -15.41122,0 7.7056103,7.7056103 0 1 1 15.41122,0 z"
       transform="matrix(0,0.5099056,-0.5099056,0,330.89456,12.875437)" />
    <path
       style="fill:#ffffff;stroke:#000000;stroke-width:1.23640239;stroke-opacity:1"
       id="path3109-6-0-9-5-4"
       d="m 223.46271,50.632839 a 7.7056103,7.7056103 0 1 1 -15.41122,0 7.7056103,7.7056103 0 1 1 15.41122,0 z"
       transform="matrix(0,0.80879817,-0.80879817,0,369.24328,-75.716263)" />
    <path
       style="fill:#ffffff;stroke:#000000;stroke-width:1.96114731;stroke-opacity:1"
       id="path3109-3-0-0-2-7-0-1-3"
       d="m 223.46271,50.632839 a 7.7056103,7.7056103 0 1 1 -15.41122,0 7.7056103,7.7056103 0 1 1 15.41122,0 z"
       transform="matrix(0,0.5099056,-0.5099056,0,297.38149,-14.264763)" />
    <path
       style="fill:#ffffff;stroke:#000000;stroke-width:1.96114731;stroke-opacity:1"
       id="path3109-3-0-0-2-7-0-1-3-2"
       d="m 223.46271,50.632839 a 7.7056103,7.7056103 0 1 1 -15.41122,0 7.7056103,7.7056103 0 1 1 15.41122,0 z"
       transform="matrix(0,0.5099056,-0.5099056,0,339.13028,-3.2271528)" />
    <path
       style="fill:#ffffff;stroke:#000000;stroke-width:1.23640239;stroke-opacity:1"
       id="path3109-6-0-9-8-6"
       d="m 223.46271,50.632839 a 7.7056103,7.7056103 0 1 1 -15.41122,0 7.7056103,7.7056103 0 1 1 15.41122,0 z"
       transform="matrix(0,0.80879817,-0.80879817,0,179.15056,-15.147763)" />
    <path
       style="fill:#ffffff;stroke:#000000;stroke-width:1.23640239;stroke-opacity:1"
       id="path3109-6-0-9-8-2"
       d="m 223.46271,50.632839 a 7.7056103,7.7056103 0 1 1 -15.41122,0 7.7056103,7.7056103 0 1 1 15.41122,0 z"
       transform="matrix(0,0.80879817,-0.80879817,0,185.74735,1.6768972)" />
    <path
       style="fill:#ffffff;stroke:#000000;stroke-width:1.23640239;stroke-opacity:1"
       id="path3109-6-0-9-8-24"
       d="m 223.46271,50.632839 a 7.7056103,7.7056103 0 1 1 -15.41122,0 7.7056103,7.7056103 0 1 1 15.41122,0 z"
       transform="matrix(0,0.80879817,-0.80879817,0,211.65613,-10.411103)" />
    <path
       style="fill:#ffffff;stroke:#000000;stroke-width:1.23640239;stroke-opacity:1"
       id="path3109-6-0-9-8-1"
       d="m 223.46271,50.632839 a 7.7056103,7.7056103 0 1 1 -15.41122,0 7.7056103,7.7056103 0 1 1 15.41122,0 z"
       transform="matrix(0,0.80879817,-0.80879817,0,259.38567,-55.729613)" />
    <path
       style="fill:#ffffff;stroke:#000000;stroke-width:1.23640239;stroke-opacity:1"
       id="path3109-6-0-9-8-13"
       d="m 223.46271,50.632839 a 7.7056103,7.7056103 0 1 1 -15.41122,0 7.7056103,7.7056103 0 1 1 15.41122,0 z"
       transform="matrix(0,0.80879817,-0.80879817,0,200.54016,-33.509143)" />
    <path
       style="fill:#ffffff;stroke:#000000;stroke-width:1.96114731;stroke-opacity:1"
       id="path3109-3-0-0-2-8"
       d="m 223.46271,50.632839 a 7.7056103,7.7056103 0 1 1 -15.41122,0 7.7056103,7.7056103 0 1 1 15.41122,0 z"
       transform="matrix(0,0.5099056,-0.5099056,0,209.49465,8.7304072)" />
    <path
       style="fill:#ffffff;stroke:#000000;stroke-width:1.96114731;stroke-opacity:1"
       id="path3109-3-0-0-2-9"
       d="m 223.46271,50.632839 a 7.7056103,7.7056103 0 1 1 -15.41122,0 7.7056103,7.7056103 0 1 1 15.41122,0 z"
       transform="matrix(0,0.5099056,-0.5099056,0,234.15522,-54.859363)" />
    <path
       style="fill:#ffffff;stroke:#000000;stroke-width:2.09803796;stroke-opacity:1"
       id="path3109-3-0-0-2-3"
       d="m 223.46271,50.632839 a 7.7056103,7.7056103 0 1 1 -15.41122,0 7.7056103,7.7056103 0 1 1 15.41122,0 z"
       transform="matrix(0,0.47663578,-0.47663578,0,217.17966,24.064857)" />
    <path
       style="fill:#ffffff;stroke:#000000;stroke-width:1.96114731;stroke-opacity:1"
       id="path3109-3-0-0-2-08"
       d="m 223.46271,50.632839 a 7.7056103,7.7056103 0 1 1 -15.41122,0 7.7056103,7.7056103 0 1 1 15.41122,0 z"
       transform="matrix(0,0.5099056,-0.5099056,0,325.70323,-33.716303)" />
    <path
       style="fill:#ffffff;stroke:#000000;stroke-width:1.96114731;stroke-opacity:1"
       id="path3109-3-0-0-2-6"
       d="m 223.46271,50.632839 a 7.7056103,7.7056103 0 1 1 -15.41122,0 7.7056103,7.7056103 0 1 1 15.41122,0 z"
       transform="matrix(0,0.5099056,-0.5099056,0,210.84441,57.212147)" />
    <path
       style="fill:#ffffff;stroke:#000000;stroke-width:1.96114731;stroke-opacity:1"
       id="path3109-3-0-0-2-07"
       d="m 223.46271,50.632839 a 7.7056103,7.7056103 0 1 1 -15.41122,0 7.7056103,7.7056103 0 1 1 15.41122,0 z"
       transform="matrix(0,0.5099056,-0.5099056,0,114.56973,48.568267)" />
    <path
       style="fill:#ffffff;stroke:#000000;stroke-width:1.96114731;stroke-opacity:1"
       id="path3109-3-0-0-2-94-7"
       d="m 223.46271,50.632839 a 7.7056103,7.7056103 0 1 1 -15.41122,0 7.7056103,7.7056103 0 1 1 15.41122,0 z"
       transform="matrix(0,0.5099056,-0.5099056,0,357.57634,-53.184723)" />
    <path
       style="fill:#ffffff;stroke:#000000;stroke-width:1.96114731;stroke-opacity:1"
       id="path3109-3-0-0-2-94-1"
       d="m 223.46271,50.632839 a 7.7056103,7.7056103 0 1 1 -15.41122,0 7.7056103,7.7056103 0 1 1 15.41122,0 z"
       transform="matrix(0,0.5099056,-0.5099056,0,276.08067,-9.5493928)"/>
    <path
       style="fill:#ffffff;stroke:#000000;stroke-width:1.96114731;stroke-opacity:1"
       id="path3109-3-0-0-1-7"
       d="m 223.46271,50.632839 a 7.7056103,7.7056103 0 1 1 -15.41122,0 7.7056103,7.7056103 0 1 1 15.41122,0 z"
       transform="matrix(0,0.5099056,-0.5099056,0,375.70935,58.563377)" />
    <path
       style="fill:#ffffff;stroke:#000000;stroke-width:1.96114731;stroke-opacity:1"
       id="path3109-3-0-0-1-7-6"
       d="m 223.46271,50.632839 a 7.7056103,7.7056103 0 1 1 -15.41122,0 7.7056103,7.7056103 0 1 1 15.41122,0 z"
       transform="matrix(0,0.5099056,-0.5099056,0,364.66207,23.713107)" />
    <path
       style="fill:#ffffff;stroke:#000000;stroke-width:1.96114731;stroke-opacity:1"
       id="path3109-3-0-0-2-94-1-8"
       d="m 223.46271,50.632839 a 7.7056103,7.7056103 0 1 1 -15.41122,0 7.7056103,7.7056103 0 1 1 15.41122,0 z"
       transform="matrix(0,0.5099056,-0.5099056,0,177.6826,-47.563783)" />
    <path
       style="fill:#ffffff;stroke:#000000;stroke-width:1.96114731;stroke-opacity:1"
       id="path3109-3-0-0-2-6-7"
       d="m 223.46271,50.632839 a 7.7056103,7.7056103 0 1 1 -15.41122,0 7.7056103,7.7056103 0 1 1 15.41122,0 z"
       transform="matrix(0,0.5099056,-0.5099056,0,142.72402,-18.158943)" />
    <path
       style="fill:#ffffff;stroke:#000000;stroke-width:1.96114731;stroke-opacity:1"
       id="path3109-3-0-0-95-6"
       d="m 223.46271,50.632839 a 7.7056103,7.7056103 0 1 1 -15.41122,0 7.7056103,7.7056103 0 1 1 15.41122,0 z"
       transform="matrix(0,0.5099056,-0.5099056,0,174.91555,-20.614573)" />
    <path
       style="fill:#ffffff;stroke:#000000;stroke-width:1.23640239;stroke-opacity:1"
       id="path3109-6-0-9-6"
       d="m 223.46271,50.632839 a 7.7056103,7.7056103 0 1 1 -15.41122,0 7.7056103,7.7056103 0 1 1 15.41122,0 z"
       transform="matrix(0,0.80879817,-0.80879817,0,373.43707,-6.5968828)" />
    <path
       style="fill:#ffffff;stroke:#000000;stroke-width:1.23640239;stroke-opacity:1"
       id="path3109-6-0-9-1-7-1"
       d="m 223.46271,50.632839 a 7.7056103,7.7056103 0 1 1 -15.41122,0 7.7056103,7.7056103 0 1 1 15.41122,0 z"
       transform="matrix(0,0.80879817,-0.80879817,0,283.89517,-19.413323)" />
    <path
       style="fill:#ffffff;stroke:#000000;stroke-width:1.23640239;stroke-opacity:1"
       id="path3109-6-0-9-25-1-1"
       d="m 223.46271,50.632839 a 7.7056103,7.7056103 0 1 1 -15.41122,0 7.7056103,7.7056103 0 1 1 15.41122,0 z"
       transform="matrix(0,0.80879817,-0.80879817,0,270.56424,-97.348043)" />
    <rect
       style="fill:none;stroke:#000000;stroke-width:0.71133226;stroke-opacity:1"
       id="rect2985-1-4-1-1"
       width="13.173228"
       height="142.92529"
       x="57.694118"
       y="46.553963" />
    <text
       xml:space="preserve"
       style="font-size:40px;font-style:normal;font-weight:normal;line-height:125%;letter-spacing:0px;word-spacing:0px;fill:#ff0000;fill-opacity:1;stroke:#ff0000;font-family:Sans"
       x="368.74805"
       y="210.77405"
       id="text2993-9-4-6-3-8"><tspan
         id="tspan2995-2-7-1-4-2"
         x="368.74805"
         y="210.77405"
         style="font-size:12px;fill:#2b0000;stroke:#2b0000">2</tspan></text>
  </g>
</svg>
